# xmcd CD database file
#
# Track frame offsets:
#	150
#	16863
#	38144
#	55150
#	76308
#	91967
#	111023
#	131801
#	150405
#	170466
#	190273
#	207612
#	228937
#
# Disc length: 3245 seconds
#
# Revision: 0
# Processed by: cddbd v1.5.2PL0 Copyright (c) Steve Scherf et al.
# Submitted via: CDex 1.70beta2
#
DISCID=a00cab0d
DTITLE=Marte - Angel Wings
DYEAR=1900
DGENRE=Blues
TTITLE0=Dressed In White
TTITLE1=Teardrops
TTITLE2=Angel Wings
TTITLE3=Southern Blue
TTITLE4=Moon To Moon
TTITLE5=Keep On Crusing
TTITLE6=Golden Wings
TTITLE7=Silver Locks
TTITLE8=Untouchable Angel
TTITLE9=Feeling
TTITLE10=Deep In Forest
TTITLE11=I Can See The Light
TTITLE12=Dancing On Silvery Water
EXTD=
EXTT0=
EXTT1=
EXTT2=
EXTT3=
EXTT4=
EXTT5=
EXTT6=
EXTT7=
EXTT8=
EXTT9=
EXTT10=
EXTT11=
EXTT12=
PLAYORDER=
